<svg width="22" height="23" viewBox="0 0 22 23" fill="none" xmlns="http://www.w3.org/2000/svg">
<path fill-rule="evenodd" clip-rule="evenodd" d="M11.0029 2.33337C12.4696 2.33337 13.6696 3.82671 13.6696 5.66671H8.33624C8.33624 3.82671 9.53624 2.33337 11.0029 2.33337ZM20.5229 6.89337C20.4696 6.20004 19.8829 5.66671 19.1896 5.66671H15.6696C15.6696 2.72004 13.5762 0.333374 11.0029 0.333374C8.42957 0.333374 6.33624 2.72004 6.33624 5.66671H2.81624C2.12291 5.66671 1.53624 6.20004 1.48291 6.89337L0.33624 21.56C0.282907 22.3334 0.89624 23 1.68291 23H20.3229C21.1096 23 21.7229 22.3334 21.6696 21.56L20.5229 6.89337Z" fill="white"/>
</svg>
