<svg xmlns="http://www.w3.org/2000/svg" width="30" height="30"><g fill="none" fill-rule="evenodd"><path d="M0 0h30v30H0z"/><path fill="#354657" fill-rule="nonzero" d="M15 21.5a7 7 0 1 0 0-14 7 7 0 0 0 0 14zm0 1.5a8.5 8.5 0 1 1 0-17 8.5 8.5 0 0 1 0 17zm-1.068-7.77a.82.82 0 0 1 .225-.588.753.753 0 0 1 .57-.237c.583 0 1.05-.14 1.404-.419.353-.279.53-.711.53-1.297 0-.45-.16-.824-.477-1.121-.318-.298-.715-.446-1.192-.446-.486 0-.914.166-1.285.5-.212.198-.433.297-.662.297a.693.693 0 0 1-.45-.162c-.23-.18-.345-.392-.345-.635 0-.208.084-.397.252-.568a3.425 3.425 0 0 1 2.49-1.054c.6 0 1.148.14 1.642.419.495.28.888.664 1.179 1.155.291.491.437 1.03.437 1.615 0 .865-.243 1.55-.728 2.054-.486.505-1.13.82-1.934.946-.044.018-.066.04-.066.068v.5a.82.82 0 0 1-.226.588.753.753 0 0 1-.57.236.753.753 0 0 1-.569-.236.82.82 0 0 1-.225-.588V15.23zm.729 4.27c-.256 0-.453-.07-.59-.21-.137-.14-.205-.34-.205-.6v-.23c0-.262.068-.462.205-.602.137-.14.334-.21.59-.21h.172c.256 0 .452.07.59.21.136.14.204.34.204.601v.23c0 .261-.068.462-.205.602-.137.14-.333.209-.59.209h-.171z"/></g></svg>