<svg xmlns="http://www.w3.org/2000/svg" width="30" height="30"><g fill="none" fill-rule="evenodd"><path d="M0 0h30v30H0z"/><path fill="#BD8BCA" d="M15 23a8.5 8.5 0 1 1 0-17 8.5 8.5 0 0 1 0 17zm-1.068-7.77v1.027c0 .234.075.43.225.588.15.157.34.236.57.236.23 0 .42-.079.57-.236a.82.82 0 0 0 .225-.588v-.5c0-.027.022-.05.066-.068.803-.126 1.448-.441 1.934-.946.485-.504.728-1.189.728-2.054 0-.585-.146-1.124-.437-1.615a3.15 3.15 0 0 0-1.179-1.155 3.281 3.281 0 0 0-1.642-.419 3.425 3.425 0 0 0-2.49 1.054.795.795 0 0 0-.252.568c0 .243.115.455.344.635a.693.693 0 0 0 .45.162c.23 0 .451-.1.663-.297.37-.334.8-.5 1.285-.5.477 0 .874.148 1.192.446.318.297.477.67.477 1.121 0 .586-.177 1.018-.53 1.297-.353.28-.821.42-1.404.42-.23 0-.42.078-.57.236a.82.82 0 0 0-.225.588zm.729 4.27h.172c.256 0 .452-.07.59-.21.136-.14.204-.34.204-.6v-.23c0-.262-.068-.462-.205-.602-.137-.14-.333-.21-.59-.21h-.171c-.256 0-.453.07-.59.21-.137.14-.205.34-.205.601v.23c0 .261.068.462.205.602.137.14.334.209.59.209z"/></g></svg>