<?xml version="1.0" encoding="UTF-8"?><svg id="Layer_1" xmlns="http://www.w3.org/2000/svg" viewBox="0 0 115 21"><defs><style>.cls-1{fill:#485563;}</style></defs><path class="cls-1" d="M28.95413,1.58507c.00194-.33159,.00194-1.0758-.53887-1.0758h-7.94877c-.54113,0-.54113,.74422-.53919,1.0758,.00194,.31189-.00194,1.07839,.53919,1.07613h7.94877c.54081,.00226,.53726-.76424,.53887-1.07613"/><path class="cls-1" d="M28.95425,1.6101c.00194-.33159,.00194-1.07581-.53888-1.07581h-7.9488c-.54113,0-.54113,.74422-.5392,1.07581,.00194,.3119-.00194,1.0784,.5392,1.07613h7.9488c.54081,.00226,.53726-.76424,.53888-1.07613"/><path class="cls-1" d="M30.93265,9.60888c-.28184-.91955-.70419-1.7009-1.26724-2.34469-.56314-.64416-1.26697-1.13462-2.11159-1.47168s-1.83523-.5059-2.97174-.5059c-1.1775,0-2.2065,.18949-3.08694,.56723-.88045,.37812-1.61503,.90958-2.20394,1.59434-.58891,.68483-1.029,1.49974-1.32053,2.44415-.29185,.94599-.43784,1.98051-.43784,3.10441,0,1.16525,.13822,2.20748,.41459,3.12671,.27672,.92019,.69611,1.70186,1.25952,2.34531,.56278,.64381,1.26697,1.13489,2.11159,1.472,.84462,.33706,1.83554,.50559,2.9717,.50559,1.16718,0,2.19361-.19179,3.07922-.57472,.88565-.38327,1.62275-.91727,2.2117-1.60208,.5886-.68417,1.0312-1.49942,1.32826-2.44478,.29674-.94472,.44556-1.97987,.44556-3.10409,0-1.15425-.1411-2.19164-.42231-3.11182Zm-2.4522,5.47265c-.16534,.66447-.42361,1.23626-.7749,1.71703-.35129,.47978-.8004,.85301-1.34801,1.11874-.54757,.26603-1.19331,.39842-1.93691,.39842-.81652,0-1.49809-.14562-2.04569-.43681-.5476-.29126-.98379-.68483-1.30922-1.18011-.32547-.49561-.55793-1.07549-.69741-1.73996-.1398-.66383-.20893-1.37444-.20893-2.13063,0-.78653,.08494-1.51236,.25539-2.17646,.17019-.6645,.43106-1.23919,.78267-1.7248,.35093-.48494,.7978-.86077,1.34023-1.12619,.54209-.26603,1.19075-.39838,1.94468-.39838,.81617,0,1.49809,.1456,2.04569,.4365,.54761,.29122,.98155,.68739,1.30181,1.18786,.31995,.50074,.54985,1.08323,.68965,1.74764,.13948,.66451,.20921,1.36933,.20921,2.11515,0,.79716-.08297,1.52815-.24827,2.19199Z"/><path class="cls-1" d="M51.01748,20.34368h9.5357c.0817,0,.15596-.02034,.2228-.06137,.06653-.0413,.12494-.10748,.17657-.19919,.05104-.09199,.08655-.20696,.10752-.34482,.02002-.13818,.0307-.29962,.0307-.48332,0-.2044-.01068-.37553-.0307-.51371-.02097-.13787-.05648-.24988-.10752-.33706-.05163-.08655-.11004-.15048-.17657-.19147-.06684-.04067-.1411-.06133-.2228-.06133h-7.87708v-7.0967h6.66533c.0817,0,.15501-.01813,.2215-.0536,.06621-.03618,.12238-.09463,.16821-.17633,.04619-.08198,.07946-.18918,.09979-.3222,.02034-.1327,.03066-.29122,.03066-.47497,0-.19403-.01033-.36288-.03066-.50622-.02034-.14275-.0536-.25508-.09979-.3371-.04584-.08139-.102-.14563-.16821-.19178-.06649-.04584-.1398-.06878-.2215-.06878h-6.66533V2.70073h7.76925c.08233,0,.15627-.02034,.22312-.06137,.06653-.04103,.12009-.1046,.16144-.19178,.04036-.08651,.07394-.19923,.09944-.3371s.03843-.29895,.03843-.48265c0-.2044-.01293-.37584-.03843-.51371s-.05908-.25279-.09944-.34514c-.04134-.09171-.09491-.15789-.16144-.19923-.06684-.04036-.14078-.06133-.22312-.06133h-9.42787c-.23569,0-.45845,.07942-.66797,.23762-.21023,.15887-.31483,.43685-.31483,.83591V19.27015c0,.39906,.1046,.67708,.31483,.83591,.20952,.1582,.43228,.23762,.66797,.23762Z"/><path class="cls-1" d="M111.62821,2.38464c-.0465-.20567-.1314-.3274-.28125-.37422v-.01873c.18729-.05683,.31869-.1876,.31869-.36551,0-.14109-.06554-.2625-.14981-.32799-.11299-.07494-.2444-.12208-.53503-.12208-.25374,0-.45104,.02843-.59147,.05618v1.52749h.35677v-.60926h.1692c.19695,0,.29087,.07526,.31834,.24381,.04781,.17823,.07587,.30964,.12238,.36545h.38518c-.0378-.04679-.06523-.14074-.113-.37513Zm-.70387-.48691h-.1692v-.44009c.0378-.01001,.10334-.01904,.1973-.01904,.22568,0,.32902,.09361,.32902,.23439,0,.15919-.16017,.22473-.35712,.22473Z"/><path class="cls-1" d="M110.99894,.42675h-.00907c-.88175,0-1.58625,.68382-1.58625,1.53652,0,.87111,.70451,1.54621,1.58625,1.54621,.89207,0,1.57723-.6751,1.57723-1.54621,0-.8527-.68515-1.53652-1.56816-1.53652Zm0,2.76407c-.69387,0-1.20143-.5437-1.20143-1.22755,0-.67447,.50756-1.22756,1.1833-1.22756h.00907c.6861,0,1.18365,.55309,1.18365,1.22756,0,.68385-.49755,1.2369-1.17458,1.22755Z"/><path class="cls-1" d="M13.59444,.62433c-.04615-.06617-.11525-.1172-.20724-.15335-.09238-.03555-.22024-.06621-.38392-.09203-.164-.02518-.37423-.03811-.62994-.03811-.2457,0-.44813,.01292-.60633,.03811-.15883,.02582-.28929,.05648-.39164,.09203-.10267,.03615-.17176,.08718-.20759,.15335-.03587,.06681-.05329,.13562-.05329,.20664V7.60674c-.65543-.68449-1.31892-1.20332-1.98921-1.55592-.67061-.35258-1.41063-.52851-2.21876-.52851-.97315,0-1.83069,.18146-2.57296,.54401-.7423,.36292-1.36416,.88112-1.86589,1.55591-.50173,.67416-.88049,1.48942-1.13651,2.44447-.25603,.95569-.38356,2.02635-.38356,3.21128,0,1.00154,.102,1.95434,.30671,2.85871,.20503,.90469,.53019,1.69185,.97539,2.36085,.44561,.6693,1.02644,1.20074,1.7432,1.59432,.71645,.39292,1.58176,.58986,2.59554,.58986,.93149,0,1.78903-.21985,2.57202-.65898,.78361-.43942,1.53848-1.05257,2.26562-1.83941v1.82427c0,.08136,.02033,.153,.06133,.21437,.04099,.06137,.10752,.11009,.19951,.14564,.09238,.03578,.20988,.06356,.35322,.08427,.1437,.02033,.32256,.03066,.53791,.03066,.2044,0,.37844-.01033,.52175-.03066,.14338-.0207,.25862-.04848,.34581-.08427,.08687-.03555,.14819-.08427,.18406-.14564,.03614-.06137,.05392-.13301,.05392-.21437V.83097c0-.07102-.02326-.13983-.06913-.20664Zm-2.47995,15.19816c-.39973,.50079-.77876,.92214-1.13683,1.26504-.35874,.34191-.70128,.62056-1.029,.83528-.32771,.21437-.64767,.3674-.95954,.45976-.31255,.09171-.6377,.13787-.97539,.13787-.66577,0-1.21858-.15564-1.65862-.46752-.44041-.31125-.79362-.72516-1.05966-1.24147-.26639-.51591-.45329-1.10612-.56049-1.77058-.10752-.66383-.16143-1.34383-.16143-2.03891,0-.65354,.06361-1.29701,.1921-1.93081,.12754-.63411,.33257-1.20107,.61409-1.70185,.28184-.50012,.64736-.90401,1.09841-1.21041,.45041-.30675,.99802-.46011,1.64308-.46011,.69611,0,1.36413,.22244,2.00407,.66671,.63963,.44458,1.30311,1.091,1.98921,1.93884v5.51817Z"/><path class="cls-1" d="M95.02005,19.59944c-.04103-.14753-.13306-.40579-.2764-.7736l-1.78159-4.36841c-.20439-.50079-.40974-.95053-.61413-1.34899-.20534-.39838-.42227-.75098-.65284-1.05769-.22986-.3064-.47848-.56956-.74451-.78976-.2664-.21953-.56314-.40067-.89113-.54406,.5834-.20435,1.11098-.45427,1.58204-.75098,.47043-.29638,.87532-.64606,1.21305-1.04964,.33769-.4039,.59663-.86886,.77517-1.39514,.17957-.52628,.26931-1.1213,.26931-1.78549,0-.6848-.09975-1.31119-.29966-1.8781-.19982-.567-.49912-1.07002-.89822-1.50944-.39937-.43946-.89337-.80233-1.48197-1.08876-.5889-.28541-1.26724-.49525-2.03505-.62827-.26639-.03071-.56601-.05845-.89822-.0843-.33288-.02515-.75003-.03839-1.2518-.03839h-4.22314c-.23601,0-.45849,.07942-.66801,.23762-.21019,.15888-.31483,.43686-.31483,.83559V19.94463c0,.08198,.02038,.15366,.06137,.21503,.04072,.06132,.11237,.10945,.21504,.14559,.10204,.03555,.23793,.06622,.40682,.09203,.16888,.02518,.38132,.03811,.63735,.03811,.2554,0,.46815-.01292,.63735-.03811,.16888-.02581,.30186-.05648,.39905-.09203,.09751-.03614,.16884-.08427,.21503-.14559,.04588-.06137,.06909-.13306,.06909-.21503V11.49866h1.76645c.60342,0,1.12067,.08971,1.55106,.2686,.43008,.17857,.80364,.42908,1.12099,.751,.31708,.3219,.5912,.70514,.82141,1.14909,.23052,.44524,.45297,.93278,.66801,1.46454l1.82781,4.67485c.04067,.12235,.08939,.22473,.14591,.30703,.05589,.0814,.13558,.14532,.23798,.19147,.10263,.04589,.23793,.07879,.40714,.09948,.16853,.02033,.38648,.03066,.65221,.03066,.30766,0,.55336-.01033,.73773-.03066,.18438-.02069,.32741-.05135,.43008-.09207,.102-.04067,.16853-.09168,.19951-.153,.0307-.06137,.04619-.13306,.04619-.21503,0-.08167-.02097-.19664-.06164-.34519Zm-6.16589-10.48394c-.50689,.16821-1.10841,.2528-1.80484,.2528h-2.58009V2.6852h2.22687c.52206,0,.94504,.01552,1.26724,.04618,.32256,.03035,.61149,.08167,.86756,.15305,.81881,.23502,1.40287,.62088,1.75061,1.15717,.34837,.53629,.52273,1.19331,.52273,1.96981,0,.48014-.07942,.92502-.23829,1.3335-.15887,.40872-.40714,.7639-.74518,1.0651-.33773,.30159-.76004,.53666-1.26662,.7055Z"/><path class="cls-1" d="M113.92122,19.40865L107.25621,.98398c-.04099-.11264-.09751-.20724-.16853-.28378-.07201-.07686-.17468-.13527-.30739-.17629-.13333-.04068-.30707-.0691-.52273-.08427-.21473-.0155-.48624-.02326-.81364-.02326-.30734,0-.56049,.00777-.76004,.02326-.19951,.01516-.36386,.04359-.4914,.08427-.12849,.04101-.22537,.0975-.2919,.16856-.06684,.07166-.12045,.16366-.16112,.27606l-6.66568,18.42462c-.08167,.22473-.12494,.40651-.13042,.54438-.00516,.13787,.0307,.24247,.10721,.31413,.07681,.07169,.21019,.11981,.40004,.14562,.18922,.02518,.43232,.03811,.72933,.03811,.28606,0,.51919-.01033,.6984-.03066,.17917-.02069,.31767-.05359,.41486-.09948,.09688-.04616,.17145-.10231,.22249-.16885,.051-.0659,.09235-.14527,.12301-.2373l1.62823-4.7672h8.2623l1.70441,4.82856c.04067,.092,.08462,.16853,.13042,.22987,.04619,.06133,.1182,.10976,.21535,.1456,.09688,.03555,.24058,.06136,.42976,.07654,.18986,.01516,.443,.02293,.76067,.02293,.31708,0,.57023-.01033,.76004-.03066,.18922-.02069,.32453-.06622,.40682-.13786,.08171-.0717,.12013-.17633,.11528-.31422-.00548-.13786-.04875-.31963-.13077-.54401Zm-11.99436-6.37702l3.42471-9.88664h.01549l3.47087,9.88664h-6.91107Z"/><path class="cls-1" d="M78.20134,19.60011c-.04036-.1482-.13239-.40646-.27605-.77427l-1.7813-4.36841c-.20503-.50079-.4097-.95021-.61406-1.34864-.20503-.39873-.42266-.75132-.65319-1.05803-.23052-.3064-.47883-.56956-.74487-.78914-.26635-.22015-.56309-.4013-.89049-.54469,.58347-.20435,1.1107-.45427,1.58176-.75098,.47106-.29638,.87564-.64606,1.21333-1.04964,.33777-.40359,.59604-.86886,.77557-1.39514,.17885-.52628,.26864-1.12098,.26864-1.78549,0-.68445-.09979-1.31052-.2993-1.8781-.19955-.567-.4992-1.07002-.89822-1.50944-.39941-.43946-.89341-.80201-1.48263-1.08844-.58891-.28573-1.26666-.49557-2.03442-.62859-.26635-.03071-.56597-.05845-.89854-.0843-.3332-.02515-.75035-.03839-1.25145-.03839h-4.22546c-.23601,0-.45845,.07942-.66797,.23762-.21023,.15888-.31483,.43686-.31483,.83591V19.94525c0,.08136,.02033,.15305,.06133,.21442,.04071,.06132,.11272,.11008,.21503,.14559,.10208,.03555,.23798,.06622,.40682,.09203,.1692,.02518,.38136,.03811,.63739,.03811,.25539,0,.46941-.01292,.63959-.03811,.16885-.02581,.30124-.05648,.39906-.09203,.09688-.03551,.16888-.08427,.21503-.14559,.04584-.06137,.06909-.13306,.06909-.21442V11.49928h1.7661c.6038,0,1.12134,.08909,1.5511,.26799,.43004,.1792,.80328,.42908,1.12102,.751,.31736,.3219,.59147,.70546,.82168,1.15008,.23053,.44426,.45333,.93243,.66806,1.46356l1.82742,4.67517c.04099,.12269,.08979,.22505,.14626,.30671,.05584,.0814,.13562,.14532,.23793,.19147,.10204,.04589,.23798,.07879,.40714,.09948,.16889,.02033,.38585,.03066,.65252,.03066,.30707,0,.55281-.01033,.73679-.03066,.18437-.02069,.32776-.05135,.43007-.09207,.1024-.04067,.16889-.09168,.19955-.153,.0307-.06137,.04616-.13306,.04616-.21442,0-.08166-.02034-.19726-.06164-.34514Zm-6.16585-10.4846c-.50661,.16821-1.10813,.2528-1.80424,.2528h-2.58005V2.6852h2.22683c.5221,0,.94442,.01552,1.26697,.04618,.32256,.03035,.61153,.08198,.86756,.15305,.81943,.23537,1.40287,.62088,1.75092,1.15749,.34775,.53629,.5221,1.19299,.5221,1.96949,0,.48077-.07945,.92502-.23797,1.33382-.15919,.40871-.40682,.7639-.74487,1.06513-.33773,.30155-.76004,.5363-1.26725,.70514Z"/><path class="cls-1" d="M46.82599,.76898c-.04584-.09171-.10232-.15789-.16853-.19923-.06716-.04036-.14078-.06133-.22308-.06133h-13.82182c-.08202,0-.15596,.02097-.22276,.06133-.06653,.04134-.12013,.10752-.16112,.19923-.04067,.09203-.07425,.21244-.09979,.36031-.0255,.14819-.03839,.31964-.03839,.51398,0,.19407,.01289,.36291,.03839,.50567,.02554,.14299,.05912,.25827,.09979,.34478,.04099,.08687,.09459,.15111,.16112,.19147,.06681,.04099,.14074,.06137,.22276,.06137h5.59018V19.94526c0,.08135,.02065,.15304,.06168,.21441,.04067,.06133,.11268,.11008,.21468,.14559,.10239,.03555,.24058,.06621,.41494,.09203,.17365,.02518,.38388,.03811,.62958,.03811,.25571,0,.46846-.01293,.63731-.03811,.16924-.02582,.3045-.05648,.40718-.09203,.10204-.03551,.17369-.08426,.215-.14559,.04071-.06137,.06137-.13306,.06137-.21441V2.74657h5.58991c.08229,0,.15592-.02038,.22308-.06137,.06621-.04036,.12269-.1046,.16853-.19147,.04651-.08651,.07946-.20179,.10011-.34478,.02034-.14275,.03066-.3116,.03066-.50567,0-.19435-.01033-.36579-.03066-.51398-.02065-.14788-.0536-.26828-.10011-.36031Z"/></svg>