<svg xmlns="http://www.w3.org/2000/svg" width="30" height="30"><g fill="none" fill-rule="evenodd"><path d="M0 30h30V0H0z"/><path fill="#354657" d="M22.25 20.5c0 .136-.114.25-.25.25H8a.253.253 0 0 1-.25-.25v-1c0-1.192 1.507-1.978 2.405-2.34 1.665-.67 3.593-.91 4.844-.91h.003c3.026 0 7.248 1.237 7.248 3.25v1zm-7.248-5.75c-2.856 0-8.752 1.16-8.752 4.75v1c0 .965.785 1.75 1.75 1.75h14c.965 0 1.75-.785 1.75-1.75v-1c0-3.588-5.894-4.75-8.748-4.75zM15 7.25A2.752 2.752 0 0 1 17.75 10 2.752 2.752 0 0 1 15 12.75 2.752 2.752 0 0 1 12.25 10 2.752 2.752 0 0 1 15 7.25zm0 7A4.254 4.254 0 0 0 19.25 10 4.254 4.254 0 0 0 15 5.75 4.255 4.255 0 0 0 10.75 10 4.255 4.255 0 0 0 15 14.25z"/></g></svg>