<svg width="16" height="16" viewBox="0 0 16 16" fill="none" xmlns="http://www.w3.org/2000/svg">
<path fill-rule="evenodd" clip-rule="evenodd" d="M15.2 8.00005C15.2 8.44005 14.84 8.80005 14.4 8.80005H8.79999V14.4C8.79999 14.84 8.43999 15.2 7.99999 15.2C7.55999 15.2 7.19999 14.84 7.19999 14.4V8.80005H1.59999C1.15999 8.80005 0.799988 8.44005 0.799988 8.00005C0.799988 7.56005 1.15999 7.20005 1.59999 7.20005H7.19999V1.60005C7.19999 1.16005 7.55999 0.800049 7.99999 0.800049C8.43999 0.800049 8.79999 1.16005 8.79999 1.60005V7.20005H14.4C14.84 7.20005 15.2 7.56005 15.2 8.00005Z" fill="#354657"/>
</svg>
